<svg width="14" height="14" viewBox="0 0 14 14" fill="none" xmlns="http://www.w3.org/2000/svg">
<path fill-rule="evenodd" clip-rule="evenodd" d="M0.435974 2.18404C0 3.03969 0 4.15979 0 6.4V7.6C0 9.84021 0 10.9603 0.435974 11.816C0.819467 12.5686 1.43139 13.1805 2.18404 13.564C3.03969 14 4.15979 14 6.4 14H7.6C9.84021 14 10.9603 14 11.816 13.564C12.5686 13.1805 13.1805 12.5686 13.564 11.816C14 10.9603 14 9.84021 14 7.6V6.4C14 4.15979 14 3.03969 13.564 2.18404C13.1805 1.43139 12.5686 0.819467 11.816 0.435974C10.9603 0 9.84021 0 7.6 0H6.4C4.15979 0 3.03969 0 2.18404 0.435974C1.43139 0.819467 0.819467 1.43139 0.435974 2.18404ZM10.0511 6.25871C10.3321 5.95435 10.3131 5.47985 10.0087 5.1989C9.70436 4.91795 9.22986 4.93693 8.94891 5.24129L6.51493 7.87811L5.31444 6.50613C5.04168 6.1944 4.56786 6.16281 4.25613 6.43557C3.9444 6.70833 3.91282 7.18215 4.18558 7.49388L5.75241 9.28454C6.1438 9.73185 6.83664 9.74106 7.23979 9.30432L10.0511 6.25871Z" fill="#1C1C1C"/>
</svg>
